<?xml version="1.0" encoding="UTF-8"?>
<!DOCTYPE svg PUBLIC "-//W3C//DTD SVG 1.1//EN" "http://www.w3.org/Graphics/SVG/1.1/DTD/svg11.dtd">
<!-- Creator: CorelDRAW -->
<svg xmlns="http://www.w3.org/2000/svg" xml:space="preserve" width="512px" height="512px" version="1.1" style="shape-rendering:geometricPrecision; text-rendering:geometricPrecision; image-rendering:optimizeQuality; fill-rule:evenodd; clip-rule:evenodd"
viewBox="0 0 512 512"
 xmlns:xlink="http://www.w3.org/1999/xlink">
 <defs>
  <style type="text/css">
   <![CDATA[
    .fil0 {fill:black}
   ]]>
  </style>
 </defs>
 <g id="Layer_x0020_1">
  <metadata id="CorelCorpID_0Corel-Layer"/>
  <g id="_350133528">
   <path class="fil0" d="M255 341c0,0 0,0 0,0 -41,-5 -74,-22 -99,-52 -64,-81 -46,-224 -45,-230 0,-4 3,-7 7,-7 106,-9 130,-46 131,-48 0,-1 1,-2 3,-3 3,-2 9,0 11,3 0,1 24,39 131,48 4,0 7,3 7,7 1,6 19,149 -46,230 -24,31 -57,48 -98,52 -1,0 -1,0 -2,0 0,0 0,0 0,0zm-16 -115c-1,0 -1,0 0,0 -3,0 -5,-1 -6,-3 -1,0 -1,-1 -2,-1l-41 -41c-8,-9 -8,-21 0,-30 4,-3 9,-6 14,-6 5,0 11,3 14,6l20 20 55 -55c3,-3 8,-5 13,-5 6,0 11,2 15,5 4,5 6,10 6,15 0,6 -2,11 -6,14l-76 77c0,0 -1,1 -1,1 -1,2 -4,3 -5,3zm-35 -65c0,0 0,0 0,0 -1,0 -2,0 -3,2 -1,2 -1,5 0,7l38 36 71 -72c1,-1 2,-2 2,-2 0,-1 0,-2 -2,-4 -1,-1 -2,-1 -3,-1 -1,0 -2,0 -3,1l-59 59c0,0 -1,1 -1,1 -2,2 -4,2 -6,2 -2,0 -4,-1 -6,-2 0,0 -1,-1 -1,-1l-24 -24c-1,-1 -2,-2 -3,-2zm51 138c0,0 0,0 0,0 0,0 0,0 0,0 -32,-2 -56,-16 -75,-39 -49,-61 -35,-169 -35,-173 0,-4 4,-7 7,-7 78,-7 96,-34 96,-35 1,-1 2,-2 3,-3 4,-2 9,0 11,3 1,1 18,28 97,35 3,0 6,3 7,7 0,4 14,112 -35,173 -19,23 -44,37 -75,39 0,0 0,0 -1,0zm-94 -204c-2,24 -6,108 32,155 15,20 36,31 62,34 27,-3 48,-14 64,-34 38,-47 34,-131 32,-155 -58,-6 -85,-22 -96,-33 -11,11 -37,27 -94,33z"/>
   <g>
    <path class="fil0" d="M306 402l0 0c0,0 0,0 0,0z"/>
    <polygon class="fil0" points="273,414 273,414 "/>
    <path class="fil0" d="M277 421l0 0 0 0c0,0 0,0 0,0z"/>
    <path class="fil0" d="M321 394c6,-17 12,-30 34,-42l45 -24c9,-5 19,-3 26,5 8,-16 13,-35 18,-58 2,-8 3,-16 6,-24 4,-16 19,-22 31,-19 12,3 23,15 19,31 -33,128 -60,148 -85,165 -10,6 -18,12 -26,24 -1,0 -2,-1 -3,-2l-50 -48c-4,-5 -9,-7 -15,-8zm63 37c1,-1 1,-1 2,-2 -1,1 -1,1 -2,2zm2 -2c1,0 1,-1 1,-1 0,0 0,1 -1,1z"/>
    <path class="fil0" d="M345 511c-1,1 -2,1 -4,1 -4,0 -7,-1 -10,-4l-50 -49c-3,-3 -5,-6 -4,-10 0,-4 1,-8 4,-11l24 -25c2,-2 6,-4 10,-4 4,-1 8,1 11,4l50 48c6,6 6,16 0,21l-24 25c-2,2 -4,4 -7,4z"/>
    <path class="fil0" d="M206 402l0 0c0,0 0,0 0,0z"/>
    <polygon class="fil0" points="273,414 273,414 "/>
    <path class="fil0" d="M268 421l0 0 0 0c0,0 0,0 0,0z"/>
    <path class="fil0" d="M191 394c-6,-17 -12,-30 -34,-42l-45 -24c-9,-5 -19,-3 -26,5 -8,-16 -13,-35 -18,-58 -2,-8 -3,-16 -6,-24 -4,-16 -19,-22 -31,-19 -12,3 -23,15 -19,31 33,128 60,148 85,165 10,6 18,12 26,24 1,0 2,-1 3,-2l50 -48c4,-5 9,-7 15,-8zm-63 37c-1,-1 -1,-1 -2,-2 1,1 1,1 2,2zm-2 -2c-1,0 -1,-1 -1,-1 0,0 0,1 1,1z"/>
    <path class="fil0" d="M167 511c1,1 2,1 4,1 4,0 7,-1 10,-4l50 -49c3,-3 5,-6 4,-10 0,-4 -1,-8 -4,-11l-24 -25c-2,-2 -6,-4 -10,-4 -4,-1 -8,1 -11,4l-50 48c-6,6 -6,16 0,21l24 25c2,2 4,4 7,4z"/>
   </g>
  </g>
 </g>
</svg>
