<?xml version="1.0" standalone="no"?>
<!DOCTYPE svg PUBLIC "-//W3C//DTD SVG 20010904//EN"
 "http://www.w3.org/TR/2001/REC-SVG-20010904/DTD/svg10.dtd">
<svg version="1.0" xmlns="http://www.w3.org/2000/svg"
 width="200.000000pt" height="200.000000pt" viewBox="0 0 200.000000 200.000000"
 preserveAspectRatio="xMidYMid meet">

<g transform="translate(0.000000,200.000000) scale(0.100000,-0.100000)"
fill="#000000" stroke="none">
<path d="M318 1609 c-22 -13 -23 -33 -1 -65 14 -23 14 -27 1 -40 -8 -9 -35
-20 -59 -25 -43 -10 -89 -42 -89 -62 0 -6 11 0 25 13 20 18 32 22 64 17 34 -4
43 -1 70 27 35 36 52 106 31 131 -15 17 -19 18 -42 4z m42 -13 c0 -3 -4 -8
-10 -11 -5 -3 -10 -1 -10 4 0 6 5 11 10 11 6 0 10 -2 10 -4z"/>
<path d="M664 1590 c-6 -6 -25 -12 -43 -12 l-31 -1 0 -84 c0 -76 2 -83 20 -83
12 0 26 13 38 37 l19 37 17 -32 c13 -25 16 -65 16 -222 l0 -190 50 0 50 0 0
71 c0 75 11 109 36 109 21 0 32 -37 32 -111 l-1 -64 52 -3 51 -3 0 71 c0 75
11 110 35 110 23 0 28 -19 29 -99 l2 -76 52 -3 52 -3 0 98 c-1 66 -5 106 -15
123 -17 30 -22 276 -5 250 5 -8 10 -10 10 -5 0 6 -11 23 -25 38 l-26 27 -199
0 c-172 0 -199 2 -202 16 -2 11 -6 12 -14 4z m138 -44 c31 -13 34 -18 30 -45
-5 -34 -24 -40 -44 -15 -7 9 -23 26 -35 38 -36 36 -11 47 49 22z m252 -30 c20
-37 16 -66 -8 -66 -10 0 -13 6 -10 15 4 8 -1 27 -11 41 -9 14 -14 32 -11 40 8
20 17 13 40 -30z m-134 25 c0 -5 14 -11 31 -15 36 -7 38 -39 2 -44 -16 -2 -23
-11 -25 -35 -2 -27 -8 -33 -30 -35 -20 -2 -28 1 -28 13 0 8 7 18 16 22 13 5
15 14 10 45 -4 22 -4 43 -1 49 8 11 25 12 25 0z m-143 -93 c7 19 33 14 33 -6
0 -10 5 -23 11 -29 18 -18 0 -37 -19 -20 -10 8 -32 18 -49 22 -31 6 -56 25
-34 25 6 0 11 7 11 17 0 14 2 14 21 -3 16 -14 23 -15 26 -6z m-152 -18 c-3 -5
-11 -10 -16 -10 -6 0 -7 5 -4 10 3 6 11 10 16 10 6 0 7 -4 4 -10z m395 -10 c0
-15 -43 -50 -61 -50 -12 0 -16 6 -12 19 3 11 11 17 18 15 8 -3 19 4 25 16 10
19 30 20 30 0z m-260 -75 c0 -25 -4 -45 -10 -45 -5 0 -10 20 -10 45 0 25 5 45
10 45 6 0 10 -20 10 -45z m147 10 c37 4 76 12 86 17 15 8 17 4 17 -29 0 -32
-5 -41 -31 -55 -26 -16 -32 -16 -45 -4 -23 23 -71 29 -103 13 -35 -17 -41 -10
-41 49 0 34 0 34 25 18 19 -12 38 -14 92 -9z m173 -8 c0 -38 -6 -48 -26 -40
-8 3 -14 19 -14 39 0 27 4 34 20 34 16 0 20 -7 20 -33z"/>
<path d="M1460 1565 c-6 -8 -10 -20 -7 -27 9 -25 -22 -64 -83 -103 -45 -29
-57 -41 -43 -43 15 -2 18 -11 18 -45 l0 -42 -42 -1 c-53 -1 -91 -26 -110 -72
-38 -92 19 -192 110 -192 24 0 49 6 55 12 10 10 14 10 21 0 5 -9 24 -12 52
-10 l44 3 3 128 3 127 -49 0 c-40 0 -48 3 -47 18 4 43 16 60 48 65 40 6 47 2
47 -29 0 -25 25 -43 38 -29 4 4 1 10 -5 12 -16 6 -17 59 -1 69 8 5 9 0 5 -16
-9 -34 35 -74 71 -65 39 10 52 24 52 56 0 29 -4 32 -65 55 -11 4 -30 6 -41 5
-17 -2 -23 5 -28 30 -10 52 -7 66 15 72 12 3 19 12 17 19 -6 18 -63 21 -78 3z
m-94 -369 c13 -52 -18 -92 -53 -70 -21 13 -27 36 -19 70 5 19 13 24 36 24 23
0 31 -5 36 -24z"/>
<path d="M252 1527 c-18 -18 -32 -36 -32 -39 0 -9 69 9 85 22 11 9 12 17 4 31
-13 26 -20 24 -57 -14z"/>
<path d="M1130 1471 c0 -5 5 -13 10 -16 6 -3 10 -2 10 4 0 5 -4 13 -10 16 -5
3 -10 2 -10 -4z"/>
<path d="M278 1413 c-18 -19 -20 -28 -12 -50 18 -53 107 -51 120 2 14 56 -67
92 -108 48z"/>
<path d="M1680 1244 l0 -146 29 -29 c24 -24 38 -29 75 -29 l46 0 0 40 c0 33
-3 40 -20 40 -19 0 -20 7 -20 135 l0 135 -55 0 -55 0 0 -146z"/>
<path d="M485 1295 c-22 -8 -45 -22 -52 -32 -19 -24 -16 -77 5 -96 15 -14 29
-19 100 -33 12 -2 22 -9 22 -15 0 -11 -18 -10 -104 3 -13 2 -23 -7 -32 -29
l-14 -32 43 -12 c58 -15 142 -7 175 18 19 14 28 31 30 55 4 45 -29 74 -94 84
-70 10 -67 28 4 22 61 -6 61 -6 71 25 13 36 13 36 -36 48 -51 12 -71 11 -118
-6z"/>
<path d="M272 1173 l3 -128 53 -3 52 -3 0 130 0 131 -55 0 -56 0 3 -127z"/>
<path d="M1530 1180 c0 -66 -1 -123 -2 -127 -2 -5 21 -9 50 -11 l52 -3 0 130
0 131 -50 0 -50 0 0 -120z"/>
<path d="M1680 780 c0 -150 10 -192 49 -205 10 -3 18 -13 17 -23 0 -9 6 -17
14 -17 8 0 14 7 12 16 -1 9 3 17 10 16 43 -1 48 3 48 43 0 33 -3 40 -20 40
-19 0 -20 7 -20 135 l0 135 -55 0 -55 0 0 -140z"/>
<path d="M350 824 c-35 -15 -79 -68 -85 -105 -8 -45 16 -103 52 -126 34 -23
98 -32 146 -21 65 14 73 26 41 59 -23 24 -30 26 -52 18 -28 -11 -72 -4 -72 10
0 4 37 16 82 25 44 9 83 18 86 20 11 11 -12 66 -38 91 -25 24 -40 29 -87 32
-32 1 -65 0 -73 -3z m89 -78 c9 -11 5 -15 -25 -20 -42 -8 -52 -3 -34 19 16 19
44 19 59 1z"/>
<path d="M590 700 l0 -130 50 0 50 0 0 69 c0 85 6 101 35 101 28 0 35 -22 35
-107 l0 -63 50 0 50 0 0 73 c0 75 9 97 41 97 21 0 29 -28 29 -107 l0 -63 50 0
50 0 0 101 c0 98 -1 101 -29 130 -34 34 -83 39 -132 14 -27 -14 -32 -14 -51 0
-26 17 -80 20 -109 5 -13 -7 -19 -7 -19 0 0 5 -22 10 -50 10 l-50 0 0 -130z"/>
<path d="M1130 823 c-34 -13 -60 -47 -60 -77 0 -50 22 -68 98 -81 23 -4 42
-11 42 -16 0 -12 -62 -12 -93 0 -21 8 -26 6 -36 -15 -18 -39 -13 -52 21 -60
86 -18 187 2 202 41 11 31 6 72 -12 88 -10 9 -41 21 -70 27 -29 7 -52 16 -52
21 0 12 52 12 84 -1 23 -8 26 -6 36 26 7 20 9 38 5 42 -8 9 -146 13 -165 5z"/>
<path d="M1380 803 c-61 -50 -60 -156 1 -207 37 -32 107 -38 137 -14 8 7 12 7
12 -1 0 -6 9 -11 19 -11 10 0 18 -6 17 -12 0 -7 4 -13 9 -13 6 0 9 6 9 13 -1
6 9 12 22 12 l24 0 0 129 0 130 -110 -1 c-103 0 -113 -2 -140 -25z m108 -5
c16 -16 15 -28 -3 -28 -8 0 -15 2 -15 4 0 2 -3 11 -6 20 -7 19 7 21 24 4z
m-40 -32 c3 -12 -1 -17 -10 -14 -7 3 -15 13 -16 22 -3 12 1 17 10 14 7 -3 15
-13 16 -22z m96 -2 c9 -22 8 -24 -9 -24 -8 0 -15 9 -15 20 0 24 15 27 24 4z
m-30 -29 c8 -8 19 -15 24 -15 24 0 22 -36 -3 -57 -24 -22 -84 -32 -86 -15 0 4
-3 19 -5 35 -9 55 34 87 70 52z m-84 -26 c0 -24 -23 -21 -28 4 -2 10 3 17 12
17 10 0 16 -9 16 -21z"/>
<path d="M762 548 c5 -15 28 -18 29 -3 0 6 -7 12 -17 13 -10 3 -15 -1 -12 -10z"/>
<path d="M1197 553 c-4 -3 -7 -35 -7 -70 0 -47 4 -63 14 -63 7 0 17 10 20 23
l6 22 19 -22 c11 -13 26 -23 35 -23 14 0 13 5 -6 31 -22 29 -22 31 -5 43 9 7
17 16 17 20 0 13 -25 5 -47 -16 l-23 -21 0 41 c0 39 -8 51 -23 35z"/>
<path d="M1319 558 c0 -2 -1 -25 -3 -53 -2 -56 8 -85 29 -85 17 0 20 16 5 25
-5 3 -10 31 -10 61 0 30 -4 54 -10 54 -5 0 -10 -1 -11 -2z"/>
<path d="M1382 549 c2 -6 8 -10 13 -10 5 0 11 4 13 10 2 6 -4 11 -13 11 -9 0
-15 -5 -13 -11z"/>
<path d="M1640 545 c7 -8 18 -15 25 -15 7 0 18 7 25 15 14 17 0 21 -17 4 -8
-8 -13 -8 -17 0 -4 6 -12 11 -18 11 -7 0 -6 -6 2 -15z"/>
<path d="M502 483 c3 -51 6 -58 26 -61 12 -2 22 1 22 7 0 6 -4 11 -10 11 -15
0 -12 58 2 62 9 3 8 9 -4 21 -30 31 -39 20 -36 -40z"/>
<path d="M270 510 c0 -25 34 -90 47 -90 16 0 59 88 48 98 -8 8 -35 -27 -35
-45 0 -24 -18 -13 -29 17 -9 28 -31 42 -31 20z"/>
<path d="M398 509 c-22 -12 -24 -62 -4 -78 17 -14 73 -11 67 4 -2 6 -12 9 -22
7 -34 -6 -28 16 6 22 40 8 43 16 17 39 -21 19 -39 21 -64 6z m46 -18 c3 -5 -3
-11 -14 -14 -20 -5 -26 3 -13 16 9 10 21 9 27 -2z"/>
<path d="M574 495 c-15 -23 -15 -27 0 -51 14 -20 24 -25 49 -22 18 2 31 8 29
13 -2 6 -14 9 -27 7 -39 -5 -29 15 10 22 40 8 43 16 17 39 -27 24 -59 21 -78
-8z m60 -4 c3 -5 -4 -11 -16 -14 -25 -7 -33 -3 -23 12 8 13 32 14 39 2z"/>
<path d="M690 468 c0 -53 22 -66 25 -14 0 15 8 32 18 37 26 15 20 26 -13 26
-29 0 -30 -2 -30 -49z"/>
<path d="M769 518 c-7 -23 -1 -92 9 -96 8 -2 12 11 12 47 0 28 -4 51 -10 51
-5 0 -10 -1 -11 -2z"/>
<path d="M820 469 c0 -37 4 -49 15 -49 10 0 15 10 15 34 0 20 6 36 14 39 20 8
26 -2 26 -40 0 -23 5 -33 15 -33 11 0 15 11 15 39 0 47 -13 59 -62 59 l-38 0
0 -49z"/>
<path d="M955 500 c-35 -39 9 -96 60 -76 25 9 17 27 -9 20 -13 -3 -27 -1 -30
5 -4 7 1 11 13 11 49 0 69 30 32 50 -29 15 -46 12 -66 -10z m55 -9 c0 -5 -9
-11 -20 -14 -20 -5 -26 3 -13 16 9 10 33 8 33 -2z"/>
<path d="M1060 469 c0 -37 4 -49 15 -49 10 0 15 10 15 30 0 18 6 33 15 36 26
10 16 31 -15 32 -29 1 -30 0 -30 -49z"/>
<path d="M1380 470 c0 -38 4 -50 15 -50 11 0 15 12 15 50 0 38 -4 50 -15 50
-11 0 -15 -12 -15 -50z"/>
<path d="M1436 513 c-3 -4 -6 -26 -6 -50 0 -32 4 -43 15 -43 10 0 15 10 15 28
0 15 5 33 12 40 17 17 38 -4 38 -39 0 -16 5 -29 10 -29 6 0 10 20 10 45 0 38
-3 45 -22 49 -33 6 -65 5 -72 -1z"/>
<path d="M1560 470 c0 -38 4 -50 15 -50 11 0 15 12 15 50 0 38 -4 50 -15 50
-11 0 -15 -12 -15 -50z"/>
<path d="M1628 509 c-21 -11 -24 -49 -6 -67 7 -7 25 -12 41 -12 16 0 26 -4 22
-10 -3 -5 -19 -10 -36 -10 -16 0 -29 -4 -29 -10 0 -5 3 -10 8 -10 4 0 17 -3
29 -6 35 -10 63 27 63 85 l0 49 -37 0 c-21 0 -46 -4 -55 -9z m51 -18 c19 -12
6 -41 -19 -41 -13 0 -20 7 -20 18 0 31 14 39 39 23z"/>
<path d="M1747 513 c-4 -3 -7 -26 -7 -50 0 -32 4 -43 15 -43 11 0 15 12 15 50
0 46 -7 60 -23 43z"/>
</g>
</svg>
